HIERARCHY
ROOT Hips
{
	OFFSET 0.000000 0.000000 0.000000
	CHANNELS 6 Xposition Yposition Zposition Zrotation Yrotation Xrotation 
	JOINT LHipJoint
	{
		OFFSET 0.000000 0.000000 0.000000
		CHANNELS 3 Zrotation Yrotation Xrotation
		JOINT LeftUpLeg
		{
			OFFSET 1.363060 -1.794630 0.839290
			CHANNELS 3 Zrotation Yrotation Xrotation
			JOINT LeftLeg
			{
				OFFSET 2.448110 -6.726130 0.000000
				CHANNELS 3 Zrotation Yrotation Xrotation
				JOINT LeftFoot
				{
					OFFSET 2.562200 -7.039590 0.000000
					CHANNELS 3 Zrotation Yrotation Xrotation
					JOINT LeftToeBase
					{
						OFFSET 0.157640 -0.433110 2.322550
						CHANNELS 3 Zrotation Yrotation Xrotation
						End Site
						{
							OFFSET 0.000000 0.000000 0.000000
						}
					}
				}
			}
		}
	}
	JOINT RHipJoint
	{
		OFFSET 0.000000 0.000000 0.000000
		CHANNELS 3 Zrotation Yrotation Xrotation
		JOINT RightUpLeg
		{
			OFFSET -1.305520 -1.794630 0.839290
			CHANNELS 3 Zrotation Yrotation Xrotation
			JOINT RightLeg
			{
				OFFSET -2.542530 -6.985550 0.000000
				CHANNELS 3 Zrotation Yrotation Xrotation
				JOINT RightFoot
				{
					OFFSET -2.568260 -7.056230 0.000000
					CHANNELS 3 Zrotation Yrotation Xrotation
					JOINT RightToeBase
					{
						OFFSET -0.164730 -0.452590 2.363150
						CHANNELS 3 Zrotation Yrotation Xrotation
						End Site
						{
							OFFSET 0.000000 0.000000 0.000000
						}
					}
				}
			}
		}
	}
}
MOTION
Frames: 28
Frame Time: 0.008333
8.440355 16.462181 0.612298 97.646834 83.035833 113.721315 -8.128652 3.331982 4.105685 -22.173746 -6.993044 -18.989217 -3.477784 0.722636 32.062246 0.821355 -2.784980 -22.376870 -0.145100 -0.000000 -24.033700 12.854509 -0.297455 2.499240 -3.531414 1.205271 -38.954595 -2.473366 -4.595187 78.448546 -1.908220 -9.221971 -12.602360 0.590700 -0.000000 -21.926400
8.672523 16.550265 0.627361 101.505540 83.140089 117.568456 -8.262854 3.380716 4.101927 -21.526938 -6.845732 -17.217809 -3.433748 0.590326 30.085560 0.679675 -2.852431 -20.610600 -0.083300 0.000000 -26.389000 12.655245 -0.112967 2.652972 -3.413378 1.676356 -39.998559 -2.314387 -4.490100 76.867126 -1.881567 -8.895465 -12.644962 0.570300 0.000000 -22.031600
8.909709 16.648935 0.639045 105.588523 83.265158 121.642776 -8.408900 3.431967 4.125497 -20.821369 -6.758797 -15.389648 -3.359594 0.454927 27.900888 0.546150 -2.762618 -18.511260 -0.058100 0.000000 -29.204600 12.428189 0.039477 2.811801 -3.200709 2.128085 -40.891939 -2.132884 -4.358581 74.877547 -1.862786 -8.608885 -12.452938 0.516700 0.000001 -22.505800
9.151321 16.757115 0.647785 109.808406 83.413508 125.845162 -8.563493 3.491887 4.166648 -20.068082 -6.703310 -13.498781 -3.255353 0.323546 25.509804 0.420142 -2.531896 -16.031551 -0.054000 0.000001 -32.603800 12.180549 0.157473 2.972848 -2.897491 2.571600 -41.608514 -1.934504 -4.202920 72.485133 -1.851708 -8.368440 -12.026855 0.431300 0.000000 -23.287800
9.396675 16.873549 0.653990 114.102333 83.594347 130.100790 -8.725973 3.565952 4.213386 -19.272039 -6.642065 -11.542924 -3.122904 0.204238 22.923065 0.302186 -2.188346 -13.139273 -0.052300 0.000000 -36.598300 11.917545 0.238061 3.132687 -2.501984 3.020329 -42.121597 -1.723563 -4.025543 69.698683 -1.845891 -8.168045 -11.377999 0.315701 0.000000 -24.280500
9.644928 16.996654 0.658066 118.462910 83.820793 134.388967 -8.898250 3.658419 4.251379 -18.431134 -6.528691 -9.526345 -2.966001 0.105654 20.165943 0.194124 -1.771831 -9.822745 -0.035801 -0.000000 -41.108100 11.642266 0.277806 3.287524 -2.006550 3.488443 -42.405603 -1.502736 -3.828971 66.530147 -1.840642 -7.990531 -10.522207 0.170700 -0.000001 -25.399601
9.895225 17.124483 0.660290 122.979696 84.107349 138.788752 -9.084623 3.772039 4.264898 -17.535669 -6.307257 -7.466408 -2.790179 0.036219 17.287238 0.098986 -1.336823 -6.103028 0.005499 -0.000000 -45.922100 11.355598 0.272740 3.434880 -1.398486 3.991065 -42.440610 -1.272813 -3.615660 62.995605 -1.829465 -7.811234 -9.476273 -0.001900 0.000000 -26.585900
10.146716 17.254747 0.660894 127.867914 84.464944 143.507896 -9.290976 3.908207 4.236928 -16.568546 -5.907830 -5.401601 -2.602519 0.003502 14.367507 0.019894 -0.958755 -2.038634 0.066300 -0.000000 -50.747900 11.057179 0.219225 3.574669 -0.662947 4.542788 -42.213729 -1.032609 -3.387547 59.114487 -1.804796 -7.603375 -8.253572 -0.199200 0.000000 -27.819800
10.398779 17.384898 0.660109 133.484473 84.893726 148.904126 -9.523377 4.067925 4.151471 -15.509067 -5.244863 -3.403792 -2.411760 0.013041 11.530361 -0.040992 -0.743226 2.260965 0.114000 -0.000000 -55.163999 10.747246 0.116542 3.712066 0.208225 5.155127 -41.729020 -0.779538 -3.145149 54.911991 -1.758888 -7.342817 -6.863399 -0.416100 -0.000000 -29.095800
10.651011 17.512221 0.658669 140.209471 85.375042 155.366145 -9.785590 4.253219 3.995996 -14.347928 -4.227528 -1.568887 -2.227623 0.067057 8.924597 -0.081735 -0.811657 6.658364 0.082600 0.000000 -58.901600 10.429591 -0.028661 3.856031 1.199419 5.830792 -41.006139 -0.511300 -2.886384 50.422614 -1.683976 -7.009177 -5.308715 -0.645300 -0.000000 -30.441100
10.902874 17.634221 0.657185 148.367484 85.881651 163.219796 -10.085061 4.462918 3.758854 -13.084371 -2.777602 0.030698 -2.057639 0.162446 6.680868 -0.097914 -1.267970 10.997274 -0.117700 0.000000 -61.816701 10.104529 -0.204063 4.010183 2.279674 6.567197 -40.054052 -0.225696 -2.606912 45.684908 -1.573067 -6.591770 -3.579490 -0.878500 0.000000 -31.965400
11.154468 17.748522 0.657080 157.786648 86.357910 172.314913 -10.429194 4.691573 3.448847 -11.760219 -0.901168 1.324959 -1.907669 0.288202 4.911815 -0.082485 -2.144803 15.099754 -0.562800 0.000000 -63.711600 9.769848 -0.392589 4.179794 3.373416 7.334474 -38.923638 0.078068 -2.302998 40.763986 -1.420073 -6.080276 -1.676787 -1.102700 -0.000000 -33.662400
11.405789 17.853288 0.659613 167.705229 86.739587 -178.095893 -10.823514 4.919012 3.082130 -10.430961 1.307341 2.314843 -1.777241 0.426071 3.659743 -0.030895 -3.358014 18.816307 -1.262100 -0.000000 -64.566300 9.416957 -0.590459 4.362649 4.400526 8.085282 -37.666498 0.404487 -1.979530 35.739252 -1.223262 -5.477524 0.397737 -1.303200 0.000001 -35.594300
11.657126 17.947097 0.666113 176.823026 86.969444 -169.293721 -11.239136 5.117105 2.684700 -9.160084 3.664712 3.042450 -1.663922 0.555106 2.917221 0.051819 -4.707046 22.028336 -2.127100 -0.000000 -64.384600 9.060125 -0.801226 4.558695 5.290287 8.756629 -36.362847 0.758089 -1.649641 30.713643 -0.988423 -4.794774 2.612906 -1.461399 -0.000000 -37.652700
11.908527 18.029072 0.676831 -175.742546 87.051029 -162.155590 -11.624272 5.271362 2.278371 -7.980202 5.990014 3.580915 -1.564376 0.664080 2.635532 0.153870 -5.941657 24.654358 -2.999101 -0.000000 -63.264900 8.735523 -1.014320 4.761257 6.028452 9.308677 -35.070396 1.132163 -1.322099 25.795544 -0.729173 -4.059640 4.937147 -1.562000 -0.000000 -39.774101
12.159829 18.098758 0.691459 -170.276955 87.036516 -156.968460 -11.940457 5.388218 1.886982 -6.919501 8.124587 4.000273 -1.474112 0.753774 2.746612 0.264503 -6.806838 26.651651 -3.691600 -0.000000 -61.348100 8.474042 -1.203634 4.952719 6.633685 9.710701 -33.831357 1.507689 -1.000562 21.104958 -0.460102 -3.293056 7.336899 -1.593000 0.000000 -41.914199
12.411035 18.156093 0.709470 -166.675608 86.981279 -153.629351 -12.175830 5.481680 1.536474 -6.008501 9.936364 4.352278 -1.386377 0.830463 3.183471 0.376346 -7.093343 28.013805 -4.039600 0.000000 -58.811400 8.285690 -1.348836 5.109354 7.142518 9.923512 -32.684758 1.865452 -0.692068 16.766696 -0.192968 -2.498202 9.767349 -1.542900 -0.000000 -43.995500
12.661875 18.201331 0.729907 -164.561363 86.921204 -151.770241 -12.335761 5.560918 1.245378 -5.265146 11.335470 4.679599 -1.292579 0.900832 3.890462 0.486254 -6.682059 28.764446 -3.943900 0.000000 -55.842700 8.163348 -1.445304 5.207308 7.609262 9.909115 -31.650160 2.193930 -0.408564 12.881958 0.062840 -1.672413 12.190001 -1.403800 0.000000 -46.013901
12.912083 18.234988 0.751912 -163.501727 86.871479 -150.968720 -12.430466 5.628671 1.024042 -4.695602 12.273233 5.008534 -1.185298 0.969413 4.830796 0.595924 -5.556112 28.946489 -3.389700 0.000000 -52.622001 8.093860 -1.499303 5.230128 8.089270 9.642428 -30.734649 2.488501 -0.162188 9.519342 0.299553 -0.815533 14.568290 -1.172899 0.000000 -47.977200
13.161285 18.257650 0.774718 -163.064779 86.834740 -150.802356 -12.472455 5.682203 0.871833 -4.290004 12.754051 5.345436 -1.060520 1.038472 5.993499 0.711014 -3.802079 28.616198 -2.447100 -0.000000 -49.308200 8.061940 -1.523087 5.173898 8.623676 9.131778 -29.929249 2.747861 0.039197 6.703053 0.509123 0.051162 16.873405 -0.860301 0.000000 -49.901900
13.409087 18.269856 0.797852 -162.954323 86.815186 -150.984173 -12.471589 5.717751 0.782933 -4.043098 12.803897 5.696967 -0.918419 1.108778 7.365528 0.840465 -1.551480 27.855309 -1.229300 0.000001 -46.057500 8.056153 -1.528243 5.039797 9.230622 8.396077 -29.225059 2.971021 0.190130 4.450073 0.687103 0.913604 19.059521 -0.478000 0.000001 -51.746100
13.655021 18.271954 0.821011 -162.837552 86.811760 -151.188761 -12.445085 5.729358 0.735839 -3.914311 12.532849 6.035659 -0.764106 1.181512 8.979704 0.989902 0.976454 26.744517 0.101100 -0.000000 -42.986000 8.061613 -1.528709 4.845737 9.902995 7.512710 -28.591124 3.155738 0.292011 2.720925 0.825578 1.703083 21.100271 -0.068900 0.000000 -53.482300
13.898665 18.264058 0.844106 -162.528211 86.831052 -151.235881 -12.407164 5.714821 0.708755 -3.870226 12.057378 6.339522 -0.605437 1.258735 10.853609 1.161281 3.581899 25.385718 1.402100 0.000000 -40.207400 8.068400 -1.534445 4.609373 10.615679 6.554660 -28.005123 3.299074 0.346377 1.491514 0.922304 2.372115 22.941135 0.326200 0.000000 -55.027000
14.139711 18.246021 0.867172 -161.972380 86.886460 -151.078743 -12.366465 5.676597 0.683760 -3.892195 11.477009 6.603670 -0.450348 1.343534 12.974904 1.352874 6.118621 23.900967 2.580700 0.000000 -37.860200 8.072572 -1.550412 4.341445 11.337817 5.568611 -27.456095 3.398668 0.353188 0.767238 0.982158 2.918386 24.490619 0.684700 0.000001 -56.240700
14.377900 18.217431 0.890221 -160.924085 86.975795 -150.468444 -12.341122 5.614405 0.632158 -3.909255 10.962130 6.772309 -0.306461 1.439778 15.384972 1.549895 8.392679 22.363647 3.537900 -0.000000 -35.943000 8.061610 -1.585400 4.072874 12.032995 4.671160 -26.912174 3.453075 0.320097 0.481515 1.003177 3.260948 25.703032 0.942000 -0.000000 -57.101800
14.613180 18.177803 0.913331 -159.334648 87.105132 -149.355112 -12.333418 5.532700 0.543855 -3.904141 10.580686 6.844709 -0.175715 1.549560 18.044059 1.741680 10.346500 20.875474 4.265000 0.000000 -34.562500 8.034502 -1.639755 3.812965 12.676952 3.897867 -26.372198 3.464028 0.249022 0.640662 0.995228 3.429660 26.468863 1.092700 -0.000000 -57.492100
14.845728 18.126559 0.936530 -156.988071 87.263696 -147.512244 -12.347399 5.431180 0.408179 -3.836032 10.408226 6.795770 -0.055901 1.672558 20.936700 1.913973 11.922088 19.489736 4.760200 0.000000 -33.715100 7.986250 -1.715931 3.581079 13.254250 3.315295 -25.828644 3.435994 0.146437 1.206578 0.963110 3.417054 26.717657 1.118700 -0.000000 -57.404200
15.075843 18.063226 0.959806 -153.594696 87.428158 -144.634611 -12.380004 5.306642 0.222053 -3.671098 10.483516 6.601236 0.059235 1.805018 24.043811 2.055467 13.100484 18.223968 5.040900 0.000000 -33.301701 7.916247 -1.815193 3.393657 13.766695 2.969100 -25.291760 3.376919 0.017795 2.153238 0.912133 3.242289 26.379493 1.024800 0.000000 -56.831100
